<svg xmlns="http://www.w3.org/2000/svg" viewBox="0 0 512 512">
  <rect width="512" height="512" rx="64" fill="#fff"/>
  <!-- City buildings using game colors -->
  <!-- Rust buildings (left) -->
  <rect x="56" y="200" width="80" height="240" rx="6" fill="#c4704a"/>
  <rect x="76" y="160" width="60" height="280" rx="6" fill="#c4704a"/>
  <!-- Sand buildings (center) -->
  <rect x="156" y="240" width="70" height="200" rx="6" fill="#d4b87a"/>
  <rect x="196" y="180" width="70" height="260" rx="6" fill="#d4b87a"/>
  <rect x="236" y="220" width="60" height="220" rx="6" fill="#d4b87a"/>
  <!-- Sage buildings (right) -->
  <rect x="316" y="200" width="80" height="240" rx="6" fill="#7a9a58"/>
  <rect x="356" y="150" width="80" height="290" rx="6" fill="#7a9a58"/>
  <!-- River -->
  <path d="M0 440 Q128 420 256 440 Q384 460 512 440 L512 480 Q384 500 256 480 Q128 460 0 480 Z" fill="#a0cce8"/>
  <!-- Ground -->
  <rect x="0" y="440" width="512" height="72" rx="0" fill="#a0cce8" opacity="0.3"/>
</svg>
